<svg width="87" height="86" viewBox="0 0 87 86" fill="none" xmlns="http://www.w3.org/2000/svg">
<g id="Group 93">
<circle id="Ellipse 12" cx="43.5" cy="43" r="41.5" stroke="black" stroke-width="3"/>
<g id="Group 95">
<path id="Vector" d="M36.6128 28.6772C27.4272 28.6772 25 38.1733 25 43.1941C25 44.2618 25.864 45.1258 26.9312 45.1274C26.9328 45.1274 26.9339 45.1274 26.9355 45.1274C28.0011 45.1274 28.8661 44.2639 28.8709 43.1983C28.872 42.9269 28.9232 38.8533 30.8064 35.8245V48.0335L31.7344 66.2277C31.7563 66.6544 32.12 67 32.5477 67H34.2896C34.7179 67 35.0822 66.6544 35.1035 66.2272L36.032 48.0325H37.1931L38.1216 66.2272C38.1435 66.6544 38.5078 67 38.9355 67H40.6774C41.1046 67 41.4694 66.6544 41.4907 66.2272L42.4192 48.0325V35.8239C44.3024 38.8517 44.3536 42.9247 44.3547 43.1935C44.3547 44.2629 45.2214 45.129 46.2907 45.129C47.3595 45.129 48.2262 44.2629 48.2262 43.1935C48.2262 38.1727 45.799 28.6772 36.6128 28.6772Z" fill="black"/>
<path id="Vector_2" d="M36.613 27.7093C39.018 27.7093 40.9677 25.7597 40.9677 23.3547C40.9677 20.9497 39.018 19 36.613 19C34.208 19 32.2583 20.9497 32.2583 23.3547C32.2583 25.7597 34.208 27.7093 36.613 27.7093Z" fill="black"/>
<path id="Vector_3" d="M53.2553 44.5445C55.0073 44.5445 56.4276 43.1242 56.4276 41.3722C56.4276 39.6202 55.0073 38.2 53.2553 38.2C51.5033 38.2 50.083 39.6202 50.083 41.3722C50.083 43.1242 51.5033 44.5445 53.2553 44.5445Z" fill="black"/>
<path id="Vector_4" d="M53.2546 45.1268C52.1282 45.1268 51.1746 45.3674 50.364 45.7727C48.3544 44.2159 47.1682 41.8452 47.0888 41.6724C46.8242 41.0938 46.1389 40.8388 45.5586 41.1044C44.9805 41.369 44.725 42.0527 44.9912 42.6324C45.8034 44.4074 47.4701 47.177 49.765 48.857V56.7573L50.2642 66.5109C50.2765 66.7802 50.5085 67 50.7789 67H51.8936C52.1634 67 52.3944 66.7802 52.4082 66.5104L52.9069 56.7567H53.6045L54.1026 66.5104C54.1144 66.7802 54.3458 67 54.6162 67H55.7304C56.0018 67 56.2317 66.7802 56.2456 66.5104L56.7437 56.7567V49.4197C57.8749 51.2405 57.9064 53.689 57.9069 53.8511C57.9096 54.4917 58.429 55.0106 59.0722 55.0106C59.7155 55.0106 60.2338 54.4906 60.2338 53.849C60.2328 50.8325 58.7741 45.1268 53.2546 45.1268Z" fill="black"/>
</g>
</g>
</svg>
