<svg width="87" height="86" viewBox="0 0 87 86" fill="none" xmlns="http://www.w3.org/2000/svg">
<g clip-path="url(#clip0_228_15)">
<path d="M43.5 84.5C66.4198 84.5 85 65.9198 85 43C85 20.0802 66.4198 1.5 43.5 1.5C20.5802 1.5 2 20.0802 2 43C2 65.9198 20.5802 84.5 43.5 84.5Z" stroke="black" stroke-width="3"/>
<path d="M63.8673 45.3594C63.8807 45.24 63.8933 45.1206 63.9046 45.0006C63.905 44.9967 63.9053 44.9927 63.9057 44.9887C63.9672 44.334 64 43.6709 64 43C64 31.4033 54.5975 22 43 22C42.1973 22 41.4056 22.0466 40.6262 22.1344C40.6172 22.1354 40.608 22.1362 40.5989 22.1372V22.1375C30.8046 23.2528 23.0542 31.1066 22.0999 40.9492H22.0994C22.0922 41.0247 22.0862 41.1003 22.0798 41.1759C22.066 41.335 22.0542 41.4947 22.0441 41.6548C22.0415 41.697 22.0385 41.7391 22.036 41.7814C22.0296 41.8946 22.0243 42.0081 22.0196 42.1217C22.0185 42.1501 22.0175 42.1785 22.0164 42.2068C22.0066 42.4701 22 42.7343 22 43C22 54.5967 31.4033 64 43 64C43.2652 64 43.5289 63.9934 43.7918 63.9836C43.8214 63.9825 43.851 63.9815 43.8805 63.9803C43.9926 63.9757 44.1045 63.9704 44.2161 63.9642C44.2619 63.9616 44.3076 63.9583 44.3533 63.9555C44.5152 63.9451 44.6765 63.9331 44.8374 63.9191C44.9085 63.913 44.9798 63.9075 45.0507 63.9006V63.9001C54.8939 62.9459 62.7472 55.1956 63.8625 45.4011C63.8625 45.4011 63.8627 45.4011 63.8629 45.4011C63.8645 45.3872 63.8657 45.3733 63.8673 45.3594ZM62.2498 43C62.2498 43.2593 62.2432 43.5171 62.233 43.774C61.1896 43.7267 60.158 43.6033 59.1421 43.404L59.759 41.4801L58.2212 40.987L57.5661 43.03C56.7997 42.8168 56.0436 42.5604 55.3003 42.2588C54.798 42.0551 54.3058 41.8325 53.8238 41.5921L54.9867 39.8754L53.6492 38.9694L52.4014 40.8116C51.1656 40.0695 50.0083 39.1985 48.938 38.2055L50.4251 36.7184L49.2829 35.5762L47.7958 37.0634C46.8311 36.0238 45.9821 34.902 45.2541 33.706L47.1205 32.4417L46.2147 31.1044L44.4657 32.2892C44.2035 31.7712 43.9611 31.2417 43.7414 30.7001C43.4543 29.9924 43.2087 29.2731 43.0016 28.5443L45.1028 27.8706L44.6096 26.3326L42.6196 26.9706C42.4072 25.9183 42.2753 24.849 42.2262 23.7672C42.4831 23.757 42.7408 23.7504 43.0001 23.7504C53.6143 23.7502 62.2498 32.3858 62.2498 43ZM23.7504 43C23.7504 42.867 23.7527 42.7346 23.7554 42.6023C24.6705 42.6588 25.5767 42.7726 26.4704 42.9465L25.752 45.1869L27.2902 45.6801L28.0474 43.3185C28.824 43.5334 29.5901 43.7926 30.3431 44.0981C30.8655 44.31 31.3768 44.5427 31.8774 44.7943L30.524 46.7923L31.8613 47.6982L33.2969 45.5789C34.5123 46.3138 35.6513 47.1733 36.7059 48.1517L35.0043 49.8532L36.1465 50.9954L37.8481 49.2938C38.8545 50.3786 39.7361 51.5523 40.4846 52.8069L38.3894 54.2262L39.2952 55.5636L41.2612 54.2319C41.4917 54.6974 41.7055 55.1725 41.902 55.657C42.2212 56.444 42.4911 57.2451 42.7114 58.0577L40.4062 58.7967L40.8993 60.3347L43.0731 59.6378C43.2354 60.4965 43.3436 61.3664 43.3977 62.2448C43.2653 62.2474 43.133 62.2498 43 62.2498C32.3859 62.2497 23.7503 53.6141 23.7504 43ZM45.0084 62.1452C44.9457 61.1382 44.8155 60.135 44.6188 59.142L47.052 58.3619L46.5589 56.8241L44.2473 57.5652C43.8489 56.1099 43.3027 54.6868 42.6083 53.3194L44.6449 51.9398L43.7389 50.6025L41.8219 51.9011C41.0255 50.5791 40.082 49.3213 38.9909 48.1509L40.7154 46.4263L39.5733 45.2842L37.8486 47.0087C36.709 45.9465 35.4868 45.0238 34.2031 44.2409L35.4849 42.3486L34.1476 41.4428L32.7901 43.4469C31.4222 42.7427 29.9976 42.1882 28.5402 41.7816L29.2629 39.5276L27.7247 39.0344L26.9655 41.4022C25.9376 41.1934 24.8981 41.0565 23.8549 40.9916C24.7805 32.1032 31.7795 24.9938 40.6168 23.8977C40.6748 25.0949 40.8283 26.288 41.0755 27.4656L38.457 28.3051L38.9502 29.8432L41.4645 29.037C41.8729 30.465 42.424 31.8606 43.1188 33.2013L40.8652 34.7279L41.7711 36.0653L43.9151 34.6129C44.6913 35.8778 45.6047 37.0819 46.6528 38.2061L44.7139 40.145L45.8561 41.2873L47.795 39.3483C48.9507 40.4255 50.1913 41.3596 51.4949 42.1495L50.0254 44.3188L51.3629 45.2248L52.9105 42.9402C54.2513 43.6257 55.6465 44.1674 57.073 44.5675L56.2484 47.1397L57.7862 47.6328L58.6469 44.9483C59.7879 45.1817 60.9432 45.3273 62.1022 45.3834C61.0062 54.2206 53.8968 61.2195 45.0084 62.1452Z" fill="black"/>
</g>
<defs>
<clipPath id="clip0_228_15">
<rect width="87" height="86" fill="white"/>
</clipPath>
</defs>
</svg>
