<svg width="87" height="86" viewBox="0 0 87 86" fill="none" xmlns="http://www.w3.org/2000/svg">
<g id="Group 103">
<circle id="Ellipse 13" cx="43.5" cy="43" r="41.5" stroke="black" stroke-width="3"/>
<g id="Group 104">
<path id="Vector" fill-rule="evenodd" clip-rule="evenodd" d="M32 21C33.215 21 34.2 21.985 34.2 23.2V25.4H51.8V23.2C51.8 21.985 52.7849 21 54 21C55.2151 21 56.2 21.985 56.2 23.2V25.4H58.4C62.0452 25.4 65 28.3549 65 32V58.4C65 62.0452 62.0452 65 58.4 65H27.6C23.9549 65 21 62.0452 21 58.4V32C21 28.3549 23.9549 25.4 27.6 25.4H29.8V23.2C29.8 21.985 30.785 21 32 21ZM25.4 38.6H60.6V58.4C60.6 59.6151 59.6151 60.6 58.4 60.6H27.6C26.385 60.6 25.4 59.6151 25.4 58.4V38.6Z" fill="black"/>
<path id="Star 1" d="M42.0489 42.927C42.3483 42.0057 43.6517 42.0057 43.9511 42.9271L45.0206 46.2188C45.1545 46.6309 45.5385 46.9098 45.9717 46.9098H49.4329C50.4016 46.9098 50.8044 48.1494 50.0207 48.7188L47.2205 50.7533C46.87 51.0079 46.7234 51.4593 46.8572 51.8713L47.9268 55.1631C48.2261 56.0844 47.1717 56.8506 46.388 56.2812L43.5878 54.2467C43.2373 53.9921 42.7627 53.9921 42.4122 54.2467L39.612 56.2812C38.8283 56.8506 37.7739 56.0844 38.0732 55.1631L39.1428 51.8713C39.2766 51.4593 39.13 51.0079 38.7795 50.7533L35.9793 48.7188C35.1956 48.1494 35.5984 46.9098 36.5671 46.9098H40.0283C40.4615 46.9098 40.8455 46.6309 40.9794 46.2188L42.0489 42.927Z" fill="black"/>
</g>
</g>
</svg>
