<svg width="87" height="86" viewBox="0 0 87 86" fill="none" xmlns="http://www.w3.org/2000/svg">
<g id="Group 97">
<circle id="Ellipse 12" cx="43.5" cy="43" r="41.5" stroke="black" stroke-width="3"/>
<g id="Group">
<path id="Vector" d="M50.5462 27.3223C50.5462 26.77 50.0985 26.3223 49.5462 26.3223H49.1182C48.5659 26.3223 48.1182 25.8746 48.1182 25.3223V24.6919C48.1182 24.1396 47.6705 23.6919 47.1182 23.6919H41.0247C40.4724 23.6919 40.0247 24.1396 40.0247 24.6919V25.3223C40.0247 25.8746 39.577 26.3223 39.0247 26.3223H38.5967C38.0444 26.3223 37.5967 26.77 37.5967 27.3223V28.8717C37.5967 28.9164 37.6329 28.9527 37.6776 28.9527C37.6674 28.9527 37.66 28.9623 37.6627 28.9722L40.0419 37.6421C40.0434 37.6476 40.0393 37.6531 40.0335 37.6531C40.0286 37.6531 40.0247 37.6571 40.0247 37.6619V39.2835C40.0247 39.8358 40.4724 40.2835 41.0247 40.2835H41.4528C42.005 40.2835 42.4528 40.7312 42.4528 41.2835V56.6728C42.4528 57.008 42.181 57.2798 41.8458 57.2798C41.5105 57.2798 41.2387 57.5516 41.2387 57.8868V59.3032C41.2387 59.6384 41.5105 59.9102 41.8458 59.9102C42.181 59.9102 42.4528 60.182 42.4528 60.5172V64.3733C42.4528 64.9256 42.005 65.3733 41.4528 65.3733H40.9896C40.4935 65.3733 40.0724 65.737 40.0002 66.2278L39.2827 71.1072C39.1939 71.711 39.6618 72.2527 40.272 72.2527H47.8709C48.4811 72.2527 48.949 71.711 48.8603 71.1072L48.1427 66.2278C48.0705 65.737 47.6494 65.3733 47.1533 65.3733H46.6902C46.1379 65.3733 45.6902 64.9256 45.6902 64.3733V60.5172C45.6902 60.182 45.9619 59.9102 46.2972 59.9102C46.6324 59.9102 46.9042 59.6384 46.9042 59.3032V57.8868C46.9042 57.5516 46.6324 57.2798 46.2972 57.2798C45.9619 57.2798 45.6902 57.008 45.6902 56.6728V41.2835C45.6902 40.7312 46.1379 40.2835 46.6902 40.2835H47.1182C47.6705 40.2835 48.1182 39.8358 48.1182 39.2835V37.6619C48.1182 37.6571 48.1143 37.6531 48.1094 37.6531C48.1037 37.6531 48.0995 37.6476 48.101 37.6421L50.4802 28.9722C50.4829 28.9623 50.4755 28.9527 50.4653 28.9527C50.51 28.9527 50.5462 28.9164 50.5462 28.8717V27.3223ZM42.3727 37.6531C41.9539 37.6531 41.5868 37.3732 41.476 36.9693L39.6231 30.2173C39.4484 29.5808 39.9274 28.9527 40.5875 28.9527H42.3026C42.8549 28.9527 43.3026 29.4004 43.3026 29.9527V36.7233C43.3026 37.2368 42.8863 37.6531 42.3727 37.6531ZM46.6669 36.9693C46.5561 37.3732 46.189 37.6531 45.7702 37.6531C45.2567 37.6531 44.8403 37.2368 44.8403 36.7233V29.9527C44.8403 29.4004 45.2881 28.9527 45.8403 28.9527H47.5555C48.2155 28.9527 48.6945 29.5808 48.5198 30.2173L46.6669 36.9693Z" fill="black"/>
<g id="Group_2">
<g id="Group_3">
<path id="Vector_2" d="M34.3592 31.765H28.2891C27.8642 31.765 27.5 31.421 27.5 30.9759C27.5 30.5307 27.844 30.1868 28.2891 30.1868H34.3592C34.7841 30.1868 35.1483 30.5307 35.1483 30.9759C35.1483 31.421 34.7841 31.765 34.3592 31.765Z" fill="black"/>
</g>
<g id="Group_4">
<path id="Vector_3" d="M34.7232 22.4981C34.5208 22.4981 34.3185 22.4172 34.1769 22.2756L31.2227 19.3214C30.9192 19.0179 30.9192 18.5323 31.2227 18.2086C31.5263 17.9051 32.0119 17.9051 32.3154 18.2086L35.2695 21.1627C35.573 21.4662 35.573 21.9518 35.2695 22.2756C35.1076 22.4172 34.9053 22.4981 34.7232 22.4981Z" fill="black"/>
</g>
<g id="Group_5">
<path id="Vector_4" d="M31.7691 44.3505C31.5667 44.3505 31.3644 44.2695 31.2227 44.1279C30.9192 43.8244 30.9192 43.3388 31.2227 43.0353L34.1769 40.0811C34.4804 39.7776 34.966 39.7776 35.2695 40.0811C35.573 40.3846 35.573 40.8703 35.2695 41.194L32.3154 44.1279C32.1737 44.2695 31.9714 44.3505 31.7691 44.3505Z" fill="black"/>
</g>
</g>
<g id="Group_6">
<g id="Group_7">
<path id="Vector_5" d="M34.3592 31.765H28.2891C27.8642 31.765 27.5 31.421 27.5 30.9759C27.5 30.5307 27.844 30.1868 28.2891 30.1868H34.3592C34.7841 30.1868 35.1483 30.5307 35.1483 30.9759C35.1483 31.421 34.7841 31.765 34.3592 31.765Z" fill="black"/>
</g>
<g id="Group_8">
<path id="Vector_6" d="M34.7232 22.4981C34.5208 22.4981 34.3185 22.4172 34.1769 22.2756L31.2227 19.3214C30.9192 19.0179 30.9192 18.5323 31.2227 18.2086C31.5263 17.9051 32.0119 17.9051 32.3154 18.2086L35.2695 21.1627C35.573 21.4662 35.573 21.9518 35.2695 22.2756C35.1076 22.4172 34.9053 22.4981 34.7232 22.4981Z" fill="black"/>
</g>
<g id="Group_9">
<path id="Vector_7" d="M31.7691 44.3505C31.5667 44.3505 31.3644 44.2695 31.2227 44.1279C30.9192 43.8244 30.9192 43.3388 31.2227 43.0353L34.1769 40.0811C34.4804 39.7776 34.966 39.7776 35.2695 40.0811C35.573 40.3846 35.573 40.8703 35.2695 41.194L32.3154 44.1279C32.1737 44.2695 31.9714 44.3505 31.7691 44.3505Z" fill="black"/>
</g>
</g>
<g id="Group_10">
<g id="Group_11">
<path id="Vector_8" d="M59.6517 31.765H53.5816C53.1567 31.765 52.7925 31.421 52.7925 30.9759C52.7925 30.5307 53.1365 30.1868 53.5816 30.1868H59.6517C60.0766 30.1868 60.4408 30.5307 60.4408 30.9759C60.4408 31.421 60.0766 31.765 59.6517 31.765Z" fill="black"/>
</g>
<g id="Group_12">
<path id="Vector_9" d="M56.1714 43.9659C55.9691 43.9659 55.7667 43.885 55.6251 43.7433L52.671 40.7892C52.3675 40.4857 52.3675 40.0001 52.671 39.6764C52.9745 39.3729 53.4601 39.3729 53.7636 39.6764L56.7177 42.6305C57.0212 42.934 57.0212 43.4196 56.7177 43.7433C56.5761 43.885 56.3738 43.9659 56.1714 43.9659Z" fill="black"/>
</g>
<g id="Group_13">
<path id="Vector_10" d="M53.2373 22.1136C53.035 22.1136 52.8326 22.0327 52.691 21.891C52.3875 21.5875 52.3875 21.1019 52.691 20.7782L55.6249 17.8241C55.9284 17.5206 56.414 17.5206 56.7175 17.8241C57.021 18.1276 57.021 18.6132 56.7175 18.9369L53.7836 21.8708C53.6218 22.0327 53.4194 22.1136 53.2373 22.1136Z" fill="black"/>
</g>
</g>
<g id="Group_14">
<path id="Vector_11" d="M44.0713 19.4226C43.6464 19.4226 43.2822 19.0787 43.2822 18.6335V14.7891C43.2822 14.3642 43.6262 14 44.0713 14C44.5165 14 44.8605 14.344 44.8605 14.7891V18.6335C44.8605 19.0584 44.4962 19.4226 44.0713 19.4226Z" fill="black"/>
</g>
</g>
</g>
</svg>
