<svg width="87" height="86" viewBox="0 0 87 86" fill="none" xmlns="http://www.w3.org/2000/svg">
<g id="Icon">
<circle id="Ellipse 12" cx="43.5" cy="43" r="41.5" stroke="black" stroke-width="3"/>
<g id="Group">
<path id="Vector" d="M64.9308 29.356H64.0918V31.7611H64.9308C65.602 31.7611 66.1054 31.2017 66.1054 30.5865C66.1613 29.9153 65.602 29.356 64.9308 29.356Z" fill="black"/>
<path id="Vector_2" d="M69.6851 26H60.568C60.0646 26 59.6172 26.4475 59.6172 26.9509V36.0679C59.6172 36.5713 60.0646 37.0188 60.568 37.0188H64.0359V59.5038C64.0359 59.7835 64.2596 60.0072 64.5393 60.0072H65.8817C66.1613 60.0072 66.3851 59.7835 66.3851 59.5038V37.0188H69.741C70.2444 37.0188 70.6919 36.5713 70.6919 36.0679V26.9509C70.636 26.4475 70.1885 26 69.6851 26ZM64.9308 33.0475H64.0918V34.7255C64.0918 34.8374 64.0359 34.8933 63.924 34.8933H62.9732C62.8613 34.8933 62.8054 34.8374 62.8054 34.7255V28.461C62.8054 28.2373 62.9732 28.1254 63.141 28.1254H64.8749C66.2173 28.1254 67.3919 29.2441 67.3919 30.5865C67.5037 31.9289 66.3291 33.0475 64.9308 33.0475Z" fill="black"/>
<path id="Vector_3" d="M58.7785 47.3103L50.6123 46.5832L44.5715 40.4865C43.7325 39.6475 42.6139 39.2001 41.4393 39.2001H31.5392C30.1408 39.2001 28.7984 39.8713 27.9595 41.0459L24.1001 46.5273L19.4017 46.8069C18.339 46.8629 17.5 47.7578 17.5 48.8205V53.6308C17.5 54.7494 18.3949 55.6443 19.5136 55.6443H23.5408C23.7645 58.0495 25.7221 59.9512 28.1832 59.9512C30.6442 59.9512 32.6019 58.0495 32.8256 55.6443H45.5783C45.802 58.0495 47.7597 59.9512 50.2207 59.9512C52.6818 59.9512 54.6394 58.0495 54.8632 55.6443H58.8903C60.0649 55.6443 61.0158 54.6376 60.9039 53.463L60.6243 49.1561C60.5683 48.2053 59.7853 47.4222 58.7785 47.3103ZM28.1832 57.5461C26.9527 57.5461 25.9459 56.5393 25.9459 55.3087C25.9459 54.0782 26.9527 53.0714 28.1832 53.0714C29.4137 53.0714 30.4205 54.0782 30.4205 55.3087C30.4205 56.5393 29.4137 57.5461 28.1832 57.5461ZM34.7273 46.3595H28.2391L30.6442 42.9476C30.868 42.6679 31.2036 42.5001 31.5392 42.5001H34.7273V46.3595ZM38.0274 46.3595V42.4442H41.4952C41.7749 42.4442 42.0545 42.556 42.2783 42.7798L45.7461 46.3595H38.0274ZM50.2207 57.5461C48.9902 57.5461 47.9834 56.5393 47.9834 55.3087C47.9834 54.0782 48.9902 53.0714 50.2207 53.0714C51.4513 53.0714 52.4581 54.0782 52.4581 55.3087C52.4581 56.5393 51.4513 57.5461 50.2207 57.5461Z" fill="black"/>
</g>
</g>
</svg>
