<svg width="87" height="86" viewBox="0 0 87 86" fill="none" xmlns="http://www.w3.org/2000/svg">
<g id="Group 101">
<circle id="Ellipse 13" cx="43.5" cy="43" r="41.5" stroke="black" stroke-width="3"/>
<g id="Group">
<g id="Group_2">
<path id="Vector" d="M52.7538 24.6671C52.2862 24.6671 51.826 24.7368 51.3694 24.8248C49.8146 22.8849 47.3448 21 43.586 21C40.6633 21 38.5382 22.0763 37.0126 23.4368C35.907 23.0591 34.7335 22.8336 33.5014 22.8336C27.4341 22.8336 22.5 27.7677 22.5 33.8349C22.5 37.8963 24.7186 41.4424 28.0007 43.3475V49.4202C28.0007 49.6641 28.0979 49.8969 28.2684 50.0693L29.4529 51.2538L28.2684 52.4383C27.9108 52.7958 27.9108 53.377 28.2684 53.7346L29.4529 54.9172L28.2684 56.1017C27.9108 56.4593 27.9108 57.0405 28.2684 57.398L29.4529 58.5844L28.2684 59.7688C27.9108 60.1264 27.9108 60.7076 28.2684 61.0652L31.9355 64.7323C32.1079 64.9047 32.3407 65 32.5846 65H34.4182C34.7244 65 35.0104 64.8478 35.1809 64.5911L38.848 59.0904C38.9489 58.9401 39.0021 58.7622 39.0021 58.5825V43.342C42.2841 41.4369 44.5028 37.8908 44.5028 33.8294C44.5028 30.4483 42.9662 27.4211 40.5588 25.4005C38.2356 26.6547 37.3317 29.1227 37.13 29.7718C37.1447 29.9019 37.1703 30.0266 37.1703 30.1605C37.1703 32.1829 35.5256 33.8276 33.5032 33.8276C31.4808 33.8276 29.8361 32.1829 29.8361 30.1605C29.8361 28.1381 31.4808 26.4934 33.5032 26.4934C33.8571 26.4934 34.1908 26.5594 34.5153 26.6529C33.8149 27.962 33.538 28.9943 33.5307 29.0237C33.4097 29.5114 33.7067 30.0083 34.1963 30.1311C34.6914 30.2522 35.1828 29.9551 35.3074 29.4674C35.3313 29.3757 35.5513 28.5689 36.0794 27.555C36.083 27.5605 36.0885 27.5623 36.0885 27.5623C36.6423 26.5062 37.5352 25.2245 38.9086 24.2546C38.9031 24.2527 38.8994 24.2509 38.8939 24.2472C40.0747 23.4185 41.6057 22.8244 43.5878 22.8244C46.3088 22.8244 48.2047 24.0144 49.4937 25.3895C49.7541 25.6664 49.9851 25.9506 50.196 26.233C50.2161 26.2605 50.2363 26.288 50.2565 26.3155C50.4472 26.5759 50.6213 26.8362 50.7735 27.0874C50.7845 27.1058 50.7974 27.1241 50.8065 27.1424C50.9697 27.4156 51.1127 27.6778 51.2356 27.9235L51.2374 27.9254C51.3621 28.1766 51.4666 28.4076 51.551 28.6111C51.7527 29.0952 51.8572 29.4326 51.8718 29.4894C51.9874 29.8928 52.3559 30.155 52.7538 30.155C52.8363 30.155 52.9206 30.144 53.0031 30.1201C53.4909 29.9826 53.7732 29.4766 53.6376 28.9907C53.6339 28.9778 53.566 28.756 53.4377 28.4186C54.624 28.7248 55.506 29.7938 55.506 31.0736C55.506 32.5899 54.272 33.8239 52.7556 33.8239C51.2393 33.8239 50.0053 32.5899 50.0053 31.0736C50.0053 30.7325 50.0749 30.408 50.1905 30.1055C50.1703 30.0615 50.1226 30.0376 50.1098 29.9881C50.0713 29.8543 49.4717 27.852 47.86 26.3412C47.0917 26.8986 46.3528 27.5788 45.6652 28.4003C45.4544 28.6533 45.3957 29.0017 45.5112 29.3115C46.0631 30.7802 46.3418 32.2984 46.3418 33.8239C46.3418 37.8706 44.4771 41.6001 41.2298 44.057C40.9933 44.2367 40.8576 44.5173 40.8668 44.8143C41.1602 55.1024 46.384 63.1609 52.7574 63.1609C59.3289 63.1609 64.6756 54.5249 64.6756 43.9085C64.6756 33.2922 59.3253 24.6671 52.7538 24.6671ZM33.5014 47.5867C33.5014 47.0806 33.9121 46.6699 34.4182 46.6699C34.9242 46.6699 35.3349 47.0806 35.3349 47.5867V59.5048C35.3349 60.0109 34.9242 60.4216 34.4182 60.4216C33.9121 60.4216 33.5014 60.0109 33.5014 59.5048V47.5867ZM60.088 44.8363H59.1712V51.2538C59.1712 51.7598 58.7605 52.1706 58.2545 52.1706H54.5873C54.0813 52.1706 53.6706 51.7598 53.6706 51.2538V46.6699H51.837V51.2538C51.837 51.7598 51.4263 52.1706 50.9202 52.1706H47.2531C46.747 52.1706 46.3363 51.7598 46.3363 51.2538V44.8363H45.4195C45.0492 44.8363 44.7136 44.6126 44.5724 44.2697C44.4312 43.9269 44.5101 43.5326 44.7705 43.2705L52.1047 35.9362C52.4622 35.5787 53.0435 35.5787 53.401 35.9362L60.7353 43.2705C60.9975 43.5326 61.0763 43.9269 60.9333 44.2697C60.7903 44.6126 60.4584 44.8363 60.088 44.8363Z" fill="black"/>
</g>
</g>
</g>
</svg>
