<svg width="87" height="86" viewBox="0 0 87 86" fill="none" xmlns="http://www.w3.org/2000/svg">
<g id="Group 102">
<circle id="Ellipse 13" cx="43.5" cy="43" r="41.5" stroke="black" stroke-width="3"/>
<g id="Group">
<path id="Vector" d="M51.8752 48.3618C51.5208 48.0088 51.0407 47.8118 50.5777 47.7751C49.6243 47.6984 48.6548 47.3307 47.9244 46.6003C47.1881 45.8655 46.796 44.9111 46.7496 43.947C46.7261 43.4752 46.5213 43.0093 46.1614 42.649C45.3714 41.8579 44.0865 41.8579 43.295 42.649L42.0385 43.905L29.0088 31.1979C29.0088 31.1979 28.3762 30.6714 28.2833 30.1932C28.1733 29.6237 28.0828 28.8791 27.4722 28.3471C26.3619 27.3796 24.5041 25.8772 23.3463 25.0593C22.8584 24.7146 22.5206 24.7879 22.1798 25.1292L21.2949 26.0146C20.9542 26.3554 20.8798 26.6927 21.2255 27.1801C22.0434 28.3388 23.5444 30.1952 24.5134 31.3065C25.0453 31.9176 25.7894 32.0071 26.359 32.118C26.8376 32.2104 27.3637 32.8441 27.3637 32.8441L40.0697 45.8733L38.8147 47.1298C38.0232 47.9213 38.0232 49.2056 38.8147 49.9972C39.175 50.3565 39.6405 50.5609 40.1122 50.5843C41.0764 50.6313 42.0312 51.0224 42.7665 51.7582C43.4964 52.4886 43.8636 53.4586 43.9413 54.4129C43.978 54.8749 44.1736 55.3555 44.528 55.7085L52.6306 63.8125C54.2141 65.3956 56.7818 65.3961 58.3639 63.8125L59.9788 62.1977C61.5623 60.6137 61.5618 58.0474 59.9788 56.4634L51.8752 48.3618Z" fill="black"/>
<path id="Vector_2" d="M64.1979 29.6427L56.6048 33.8136L53.1502 31.7191L53.2363 27.6788L61.0993 23.3604C57.4389 20.0945 51.8204 20.2177 48.3077 23.73C46.0636 25.974 45.2046 29.0771 45.7267 31.9807C45.849 32.6646 45.6793 33.3804 45.1112 33.9495L39.813 39.2482L42.0243 41.4057L42.037 41.3915C42.7567 40.6728 43.7125 40.2773 44.7294 40.2773C45.7453 40.2773 46.7021 40.6728 47.4198 41.3915C47.7708 41.7435 48.0441 42.1537 48.2329 42.5977L50.8025 40.0275C51.3814 39.4496 52.2052 39.2497 52.9424 39.4389C55.9032 40.1967 59.1715 39.2389 61.4933 36.9166C63.4876 34.9224 64.3871 32.2496 64.1979 29.6427Z" fill="black"/>
<path id="Vector_3" d="M37.5559 45.8727L37.5696 45.8595L35.4135 43.6482L22.7202 56.3411C21.0946 57.9667 21.0946 60.6004 22.7202 62.2255C24.3448 63.8506 26.9795 63.8506 28.6046 62.2255L38.7625 52.0685C38.3191 51.8793 37.9079 51.6075 37.5564 51.255C36.0721 49.7712 36.0726 47.357 37.5559 45.8727Z" fill="black"/>
</g>
</g>
</svg>
