<svg width="87" height="86" viewBox="0 0 87 86" fill="none" xmlns="http://www.w3.org/2000/svg">
<g id="Group 94">
<circle id="Ellipse 13" cx="43.5" cy="43" r="41.5" stroke="black" stroke-width="3"/>
<g id="Group">
<path id="Vector" fill-rule="evenodd" clip-rule="evenodd" d="M57.8466 49.0516C59.8745 50.9104 61.2263 53.6142 61.2263 56.6559C61.2263 63.5843 54.9739 66.2881 49.0594 64.4292C45.6797 63.4153 42.3 63.4153 38.9203 64.4292C33.0059 66.2881 26.7534 63.5843 26.7534 56.6559C26.7534 53.6142 28.1053 50.9104 30.1331 49.0516C31.654 47.6997 32.6679 46.1789 33.5128 44.151C35.2027 40.0954 39.2583 37.2227 43.9899 37.2227C48.7215 37.2227 52.7771 40.0954 54.4669 44.151C55.3119 46.1789 56.3258 47.6997 57.8466 49.0516Z" fill="black"/>
<path id="Vector_2" fill-rule="evenodd" clip-rule="evenodd" d="M35.8786 21C38.7514 21 41.1172 23.8727 41.1172 27.4214C41.1172 30.8011 38.7514 33.6739 35.8786 33.6739C33.0059 33.6739 30.8091 30.8011 30.8091 27.4214C30.8091 23.8727 33.0059 21 35.8786 21Z" fill="black"/>
<path id="Vector_3" fill-rule="evenodd" clip-rule="evenodd" d="M52.1008 21C54.9736 21 57.3394 23.8727 57.3394 27.4214C57.3394 30.8011 54.9736 33.6739 52.1008 33.6739C49.2281 33.6739 46.8623 30.8011 46.8623 27.4214C46.8623 23.8727 49.2281 21 52.1008 21Z" fill="black"/>
<path id="Vector_4" fill-rule="evenodd" clip-rule="evenodd" d="M64.2673 34.1808C66.8021 35.0257 68.154 38.0675 67.14 41.2782C66.2951 44.3199 63.4224 46.3477 60.8876 45.5028C58.3528 44.8269 57.0009 41.6162 58.0149 38.4054C58.8598 35.3637 61.7325 33.5049 64.2673 34.1808Z" fill="black"/>
<path id="Vector_5" fill-rule="evenodd" clip-rule="evenodd" d="M23.7113 34.1808C21.1766 35.0257 19.8247 38.0675 20.8386 41.2782C21.6835 44.3199 24.5563 46.3477 27.091 45.5028C29.6258 44.8269 30.9777 41.6162 30.1328 38.4054C29.1189 35.3637 26.2461 33.5049 23.7113 34.1808Z" fill="black"/>
</g>
</g>
</svg>
