<svg width="87" height="86" viewBox="0 0 87 86" fill="none" xmlns="http://www.w3.org/2000/svg">
<g clip-path="url(#clip0_228_2)">
<path d="M43.5 84.5C66.4198 84.5 85 65.9198 85 43C85 20.0802 66.4198 1.5 43.5 1.5C20.5802 1.5 2 20.0802 2 43C2 65.9198 20.5802 84.5 43.5 84.5Z" stroke="black" stroke-width="3"/>
<g clip-path="url(#clip1_228_2)">
<path d="M54.1939 23.4067L60.5786 64H64L57.6142 23.4067H59.8923V20H26.1077V23.4067H28.3858L22 64H25.4214L31.8061 23.4067H36.6644V53.8745H35.8211V56.3352H50.1789V53.8745H49.3356V23.4067H54.1939ZM48.2085 53.8745H37.7904V23.4067H48.2085V53.8745Z" fill="black"/>
</g>
</g>
<defs>
<clipPath id="clip0_228_2">
<rect width="87" height="86" fill="white"/>
</clipPath>
<clipPath id="clip1_228_2">
<rect width="42" height="55" fill="white" transform="translate(22 20)"/>
</clipPath>
</defs>
</svg>
