<svg width="87" height="86" viewBox="0 0 87 86" fill="none" xmlns="http://www.w3.org/2000/svg">
<g id="Group 100">
<circle id="Ellipse 13" cx="43.5" cy="43" r="41.5" stroke="black" stroke-width="3"/>
<g id="Group 99">
<path id="Vector" d="M56.4111 41.0887C56.4111 44.0908 58.8535 46.5338 61.8563 46.5338C64.859 46.5338 67.3014 44.0908 67.3014 41.0887C67.3014 38.0865 64.859 35.6436 61.8563 35.6436C58.8535 35.6436 56.4111 38.0865 56.4111 41.0887Z" fill="black"/>
<path id="Vector_2" d="M31.7333 50.6833C32.7904 51.4334 33.6257 52.0259 35.4459 52.0259C37.2655 52.0259 38.1002 51.4334 39.1574 50.6833C40.3455 49.8406 41.6918 48.8847 44.2991 48.8847C46.9071 48.8847 48.254 49.8399 49.4421 50.6833C50.4992 51.4334 51.3346 52.0259 53.1554 52.0259C54.9762 52.0259 55.8115 51.4334 56.8687 50.6833C57.4365 50.2805 58.0451 49.8548 58.8056 49.5168C56.5264 45.5496 48.6302 31.7962 48.6302 31.7962C48.5085 31.5701 48.5005 31.3063 48.608 31.0727C48.7155 30.8398 48.9206 30.6742 49.1665 30.6205L59.0633 28.6304C60.7636 28.2578 61.9079 26.6162 61.6688 24.8917C61.4086 23.0178 59.5835 21.6783 57.6682 22.0675L43.3464 25.2828C42.0711 25.5436 41.0449 26.2893 40.4573 27.3835C39.8512 28.5111 39.7968 29.8852 40.3121 31.1635L44.0581 39.6652L28.4858 49.0874C29.926 49.4111 30.8751 50.0741 31.7333 50.6833Z" fill="black"/>
<path id="Vector_3" d="M70.8709 55.1153C69.0501 55.1153 68.2147 54.5228 67.157 53.7727C65.9682 52.9299 64.6213 51.9741 62.0127 51.9741C59.4048 51.9741 58.0579 52.9293 56.8691 53.7727C55.8114 54.5228 54.976 55.1153 53.1559 55.1153C51.3357 55.1153 50.5003 54.5228 49.4426 53.7727C48.2544 52.9299 46.9069 51.9741 44.2996 51.9741C41.6922 51.9741 40.346 52.9293 39.1578 53.7727C38.1007 54.5228 37.2653 55.1153 35.4464 55.1153C33.6262 55.1153 32.7909 54.5228 31.7337 53.7727C30.5456 52.9299 29.1987 51.9741 26.5907 51.9741C23.9828 51.9741 22.6365 52.9293 21.4484 53.7727C20.3906 54.5228 19.5553 55.1153 17.7357 55.1153C17.0536 55.1153 16.5 55.6689 16.5 56.351C16.5 57.0331 17.0536 57.5867 17.7357 57.5867C20.343 57.5867 21.6899 56.6315 22.8781 55.7881C23.9352 55.038 24.7706 54.4455 26.5907 54.4455C28.4109 54.4455 29.2463 55.038 30.3034 55.7881C31.4915 56.6309 32.8384 57.5867 35.4464 57.5867C38.0537 57.5867 39.4 56.6315 40.5881 55.7881C41.6453 55.038 42.4806 54.4455 44.3002 54.4455C46.1204 54.4455 46.9557 55.038 48.0135 55.7881C49.2016 56.6309 50.5491 57.5867 53.1565 57.5867C55.7644 57.5867 57.1113 56.6315 58.3001 55.7881C59.3578 55.038 60.1932 54.4455 62.0134 54.4455C63.8342 54.4455 64.6695 55.038 65.7273 55.7881C66.916 56.6309 68.2629 57.5867 70.8715 57.5867C71.5536 57.5867 72.1072 57.0331 72.1072 56.351C72.1072 55.6689 71.553 55.1153 70.8709 55.1153Z" fill="black"/>
<path id="Vector_4" d="M70.8709 61.5191C69.0501 61.5191 68.2147 60.9266 67.157 60.1765C65.9682 59.3337 64.6213 58.3779 62.0127 58.3779C59.4048 58.3779 58.0579 59.3331 56.8691 60.1765C55.8114 60.9266 54.976 61.5191 53.1559 61.5191C51.3357 61.5191 50.5003 60.9266 49.4426 60.1765C48.2544 59.3337 46.9069 58.3779 44.2996 58.3779C41.6922 58.3779 40.346 59.3331 39.1578 60.1765C38.1007 60.9266 37.2653 61.5191 35.4464 61.5191C33.6262 61.5191 32.7909 60.9266 31.7337 60.1765C30.5456 59.3337 29.1987 58.3779 26.5907 58.3779C23.9828 58.3779 22.6365 59.3331 21.4484 60.1765C20.3906 60.9266 19.5553 61.5191 17.7357 61.5191C17.0536 61.5191 16.5 62.0727 16.5 62.7548C16.5 63.4369 17.0536 63.9905 17.7357 63.9905C20.343 63.9905 21.6899 63.0353 22.8781 62.1919C23.9352 61.4418 24.7706 60.8493 26.5907 60.8493C28.4109 60.8493 29.2463 61.4418 30.3034 62.1919C31.4915 63.0347 32.8384 63.9905 35.4464 63.9905C38.0537 63.9905 39.4 63.0353 40.5881 62.1919C41.6453 61.4418 42.4806 60.8493 44.3002 60.8493C46.1204 60.8493 46.9557 61.4418 48.0135 62.1919C49.2016 63.0347 50.5491 63.9905 53.1565 63.9905C55.7644 63.9905 57.1113 63.0353 58.3001 62.1919C59.3578 61.4418 60.1932 60.8493 62.0134 60.8493C63.8342 60.8493 64.6695 61.4418 65.7273 62.1919C66.916 63.0347 68.2629 63.9905 70.8715 63.9905C71.5536 63.9905 72.1072 63.4369 72.1072 62.7548C72.1072 62.0727 71.553 61.5191 70.8709 61.5191Z" fill="black"/>
</g>
</g>
</svg>
